<?xml version="1.0" encoding="iso-8859-1"?>
<!-- Uploaded to: SVG Repo, www.svgrepo.com, Generator: SVG Repo Mixer Tools -->
<svg height="800px" width="800px" version="1.1" id="Layer_1" xmlns="http://www.w3.org/2000/svg" xmlns:xlink="http://www.w3.org/1999/xlink" 
	 viewBox="0 0 512 512" xml:space="preserve">
<g>
	<polygon style="fill:#F79B43;" points="503.172,350.161 503.172,444.322 420.782,491.402 338.391,444.322 338.391,350.161 
		421.017,303.08 	"/>
	<polygon style="fill:#F79B43;" points="338.391,350.161 338.391,444.322 256,491.402 173.609,444.322 173.609,350.161 
		256.118,303.198 	"/>
	<polygon style="fill:#F79B43;" points="338.391,67.678 338.391,161.839 256,208.92 173.845,161.839 173.727,161.957 
		173.609,161.839 173.609,67.678 256.235,20.598 	"/>
</g>
<g>
	<polygon style="fill:#FFD248;" points="173.609,350.161 173.609,444.322 91.218,491.402 8.828,444.322 8.828,350.161 
		91.336,303.198 	"/>
	<polygon style="fill:#FFD248;" points="503.172,67.678 503.172,161.839 420.782,208.92 338.626,161.839 338.509,161.957 
		338.391,161.839 338.391,67.678 421.017,20.598 	"/>
	<polygon style="fill:#FFD248;" points="420.782,208.92 420.782,303.08 338.391,350.161 256.235,303.08 256.118,303.198 256,303.08 
		256,208.92 338.509,161.957 	"/>
	<polygon style="fill:#FFD248;" points="256,208.92 256,303.08 173.609,350.161 91.454,303.08 91.336,303.198 91.218,303.08 
		91.218,208.92 173.727,161.957 	"/>
	<polygon style="fill:#FFD248;" points="173.609,67.678 173.609,161.839 91.218,208.92 8.828,161.839 8.828,67.678 91.454,20.598 	
		"/>
</g>
<g>
	<path style="fill:#FDC147;" d="M50.949,44.138L8.828,68.14V162.3l82.391,47.08l59.517-34.01
		C101.76,147.274,65.252,100.224,50.949,44.138z"/>
	<path style="fill:#FDC147;" d="M133.34,185.379l-42.122,24.002v94.161l82.391,47.08l59.517-34.01
		C184.15,288.515,147.643,241.465,133.34,185.379z"/>
	<path style="fill:#FDC147;" d="M298.122,184.918L256,208.92v94.161l82.391,47.08l59.517-34.01
		C348.932,288.054,312.425,241.004,298.122,184.918z"/>
	<path style="fill:#FDC147;" d="M380.513,44.138L338.391,68.14V162.3l82.391,47.08l59.517-34.01
		C431.323,147.274,394.816,100.224,380.513,44.138z"/>
	<path style="fill:#FDC147;" d="M50.949,326.621L8.828,350.622v94.161l82.391,47.08l59.517-34.01
		C101.76,429.756,65.252,382.706,50.949,326.621z"/>
</g>
<g>
	<path style="fill:#F78F41;" d="M215.731,44.138L173.609,68.14V162.3L256,209.381l59.517-34.01
		C266.541,147.274,230.034,100.224,215.731,44.138z"/>
	<path style="fill:#F78F41;" d="M215.731,326.621l-42.122,24.002v94.161L256,491.864l59.517-34.01
		C266.541,429.756,230.034,382.706,215.731,326.621z"/>
	<path style="fill:#F78F41;" d="M380.513,326.621l-42.122,24.002v94.161l82.391,47.08l59.517-34.01
		C431.323,429.756,394.816,382.706,380.513,326.621z"/>
</g>
<polygon points="282.483,96.674 282.483,144.184 300.138,144.184 300.138,85.763 259.948,65.668 252.052,81.459 "/>
<polygon style="fill:#FFFFFF;" points="334.443,222.7 364.874,237.915 364.874,285.425 382.529,285.425 382.529,227.004 
	342.339,206.909 "/>
<polygon points="416.834,363.941 447.264,379.157 447.264,426.667 464.92,426.667 464.92,368.246 424.729,348.151 "/>
<path d="M512,166.963v-104.4l-90.97-52.132l-82.626,47.08l-82.155-47.08l-82.626,47.08l-82.155-47.08L63.309,26.475l8.74,15.34
	l19.392-11.05l73.34,42.029v83.922l-73.563,42.036l-73.563-42.036V72.808L48.505,55.23l-8.74-15.34L0,62.549v104.414l82.391,47.08
	v84.09L0,345.028v104.416l91.218,52.125l82.391-47.08L256,501.569l82.391-47.08l82.391,47.08l35.279-20.159l-8.758-15.328
	l-26.52,15.153l-73.563-42.036v-83.908l73.786-42.044l73.341,42.029v83.922l-26.452,15.116l8.758,15.328L512,449.445v-104.4
	l-82.391-47.216v-83.787L512,166.963z M421.004,30.765l73.341,42.029v83.922l-73.557,42.032l-73.569-42.159V72.808L421.004,30.765z
	 M173.72,172.118l73.453,41.928v83.912l-73.557,42.032l-73.569-42.159v-83.777L173.72,172.118z M338.397,339.99l-73.569-42.161
	v-83.777l73.674-41.935l73.453,41.928v83.912L338.397,339.99z M329.563,72.795v83.922l-73.557,42.032l-73.569-42.161v-83.78
	l73.786-42.044L329.563,72.795z M91.218,481.235l-73.563-42.037v-83.906l73.674-41.935l73.453,41.929v83.911L91.218,481.235z
	 M256,481.235l-73.563-42.036v-83.906l73.674-41.935l73.453,41.927v83.911L256,481.235z"/>
<polygon points="447.264,144.184 464.92,144.184 464.92,85.763 424.729,65.668 416.834,81.459 447.264,96.674 "/>
<polygon points="252.052,363.941 282.483,379.157 282.483,426.667 300.138,426.667 300.138,368.246 259.948,348.151 "/>
<polygon style="fill:#FFFFFF;" points="87.271,363.941 117.701,379.157 117.701,426.667 135.356,426.667 135.356,368.246 
	95.166,348.151 "/>
<polygon points="200.092,285.425 217.747,285.425 217.747,227.004 177.557,206.909 169.661,222.7 200.092,237.915 "/>
<polygon style="fill:#FFFFFF;" points="135.356,144.184 135.356,85.763 95.166,65.668 87.271,81.459 117.701,96.674 
	117.701,144.184 "/>
</svg>